<?xml version="1.0" encoding="iso-8859-1"?>
<!-- Uploaded to: SVG Repo, www.svgrepo.com, Generator: SVG Repo Mixer Tools -->
<svg height="800px" width="800px" version="1.1" id="Capa_1" xmlns="http://www.w3.org/2000/svg" xmlns:xlink="http://www.w3.org/1999/xlink" 
	 viewBox="0 0 350 350" xml:space="preserve">
<g id="XMLID_880_">
	<g id="XMLID_881_">
		<g id="XMLID_887_">
			<g id="XMLID_883_">
				<circle id="XMLID_884_" style="fill:#94DAF9;" cx="277.586" cy="118.37" r="48.276"/>
				<g id="XMLID_885_">
					<path id="XMLID_886_" style="fill:#C1E8E6;" d="M350,196.818c0-36.66-29.719-66.379-66.379-66.379
						c-2.037,0-4.048,0.106-6.038,0.286c0-0.095,0.004-0.19,0.004-0.286c0-59.99-48.631-108.621-108.621-108.621
						c-56.225,0-102.472,42.719-108.055,97.471C26.386,124.802,0,154.707,0,190.784c0,39.993,32.421,72.414,72.414,72.414h217.241
						v-0.285C323.486,259.861,350,231.443,350,196.818z"/>
				</g>
			</g>
		</g>
		<circle id="XMLID_894_" style="fill:#8EC8F0;" cx="277.586" cy="118.37" r="48.276"/>
		<path id="XMLID_897_" style="fill:#8EC8F0;" d="M283.621,130.439c-2.037,0-4.048,0.106-6.038,0.286
			c0-0.095,0.004-0.19,0.004-0.286c0-59.644-48.074-108.051-107.586-108.608v241.366h119.655v-0.285
			c33.83-3.051,60.345-31.469,60.345-66.094C350,160.158,320.281,130.439,283.621,130.439z"/>
	</g>
	<g id="XMLID_898_">
		<path id="XMLID_901_" style="fill:#F9E375;" d="M220.141,191.965c-17.582,0-32.746-10.311-39.802-25.211h-20.677
			c-7.056,14.9-22.22,25.211-39.802,25.211c-6.547,0-12.759-1.431-18.344-3.995v81.51c0,34.479,68.485,58.701,68.485,58.701
			s68.485-24.222,68.485-58.701v-81.51C232.9,190.533,226.688,191.965,220.141,191.965z"/>
		<path id="XMLID_904_" style="fill:#F5D361;" d="M220.141,191.965c-17.582,0-32.746-10.311-39.802-25.211H170v161.429
			c0,0,68.485-24.222,68.485-58.701v-81.51C232.9,190.533,226.688,191.965,220.141,191.965z"/>
	</g>
</g>
</svg>